<svg width="19" height="19" viewBox="0 0 19 19" fill="none" xmlns="http://www.w3.org/2000/svg">
<path fill-rule="evenodd" clip-rule="evenodd" d="M8.68679 0.636876C9.13589 0.187773 9.86403 0.187773 10.3131 0.636876L18.3631 8.68688C18.692 9.01577 18.7904 9.51041 18.6124 9.94013C18.4344 10.3699 18.0151 10.65 17.55 10.65H16.4V17.55C16.4 18.1852 15.8851 18.7 15.25 18.7H12.95C12.3148 18.7 11.8 18.1852 11.8 17.55V14.1C11.8 13.4649 11.2851 12.95 10.65 12.95H8.34996C7.71483 12.95 7.19996 13.4649 7.19996 14.1V17.55C7.19996 18.1852 6.68509 18.7 6.04996 18.7H3.74996C3.11483 18.7 2.59996 18.1852 2.59996 17.55V10.65H1.44996C0.984829 10.65 0.565497 10.3699 0.387499 9.94013C0.209501 9.51041 0.30789 9.01577 0.636788 8.68688L8.68679 0.636876Z" fill="black"/>
</svg>
