<svg width="21" height="20" viewBox="0 0 21 20" fill="none" xmlns="http://www.w3.org/2000/svg">
<path fill-rule="evenodd" clip-rule="evenodd" d="M10.6632 18.933L10.666 18.9342C10.8631 19.02 10.9731 19 10.9731 19C10.9731 19 11.0831 19.02 11.2811 18.9339L11.2831 18.933L11.2888 18.9304L11.307 18.922C11.322 18.915 11.3428 18.9052 11.369 18.8926C11.4215 18.8673 11.4957 18.8306 11.5885 18.7822C11.7739 18.6855 12.0344 18.5419 12.3448 18.3495C12.9644 17.9655 13.7905 17.3826 14.6186 16.5844C16.2753 14.9876 17.9731 12.4925 17.9731 9C17.9731 5.13401 14.8391 2 10.9731 2C7.10715 2 3.97314 5.13401 3.97314 9C3.97314 12.4925 5.67098 14.9876 7.32766 16.5844C8.15578 17.3826 8.98191 17.9655 9.60149 18.3495C9.91193 18.5419 10.1724 18.6855 10.3578 18.7822C10.4506 18.8306 10.5248 18.8673 10.5772 18.8926C10.6035 18.9052 10.6243 18.915 10.6393 18.922L10.6575 18.9304L10.6632 18.933ZM10.9731 11.25C12.2158 11.25 13.2231 10.2426 13.2231 9C13.2231 7.75736 12.2158 6.75 10.9731 6.75C9.7305 6.75 8.72314 7.75736 8.72314 9C8.72314 10.2426 9.7305 11.25 10.9731 11.25Z" fill="#052355"/>
</svg>
