<svg width="22" height="21" viewBox="0 0 22 21" fill="none" xmlns="http://www.w3.org/2000/svg">
<path d="M21.9975 12.9817C22.0039 12.7624 21.9745 12.5437 21.911 12.3394L18.7819 2.06757C18.6875 1.75781 18.5208 1.49135 18.304 1.30323C18.0871 1.11511 17.8302 1.01414 17.5669 1.0136C14.6574 1.0136 14.5004 0.90013 14.5004 1.32878C14.5004 4.26945 14.3593 3.01628 15.5674 3.68258C17.1674 4.56509 16.3884 3.00935 18.9675 11.8446C19.0056 11.9714 19.0187 12.1079 19.0057 12.2425C18.9928 12.3771 18.9541 12.5056 18.893 12.6172C18.8319 12.7288 18.7503 12.82 18.6551 12.8831C18.5599 12.9461 18.454 12.9791 18.3464 12.9792H15.1549C15.0043 12.9789 14.8565 13.0301 14.7272 13.1272C14.5979 13.2243 14.4918 13.3637 14.4203 13.5308L13.5248 15.6047C13.4529 15.7714 13.3467 15.9106 13.2174 16.0077C13.0881 16.1048 12.9403 16.1561 12.7898 16.1563H9.01574C8.85653 16.1562 8.70063 16.099 8.5663 15.9912C8.43197 15.8835 8.32475 15.7298 8.25721 15.548L7.52871 13.5938C7.46222 13.4115 7.35575 13.2571 7.22188 13.1486C7.08801 13.0402 6.93233 12.9823 6.7732 12.9817H3.65311C3.5457 12.9815 3.43997 12.9483 3.34497 12.8852C3.24996 12.822 3.16855 12.7306 3.10775 12.619C3.04695 12.5074 3.00858 12.3788 2.99593 12.2443C2.98327 12.1099 2.99672 11.9735 3.03511 11.847C4.91165 5.41414 5.09216 4.23662 5.65617 4.02608C6.51419 3.70585 6.62669 3.49345 7.2592 3.43042C7.32338 3.42595 7.38381 3.3909 7.42827 3.33238C7.47274 3.27387 7.49792 3.19626 7.49871 3.11523C7.49871 1.371 7.57321 1.01606 7.24871 1.01606H4.43413C4.17041 1.01601 3.91287 1.1167 3.69544 1.30485C3.478 1.493 3.3109 1.75977 3.21612 2.07003L0.0870526 12.3419C0.0250056 12.5468 -0.0044064 12.7651 0.000533397 12.9843V17.608C-5.80591e-05 18.0527 0.0688557 18.4932 0.203297 18.9044C0.337737 19.3155 0.535083 19.6892 0.784089 20.0042C1.03309 20.3192 1.32887 20.5692 1.65453 20.7401C1.98019 20.9109 2.32937 20.9993 2.68211 21H19.3185C20.0307 20.998 20.7132 20.6396 21.216 20.0036C21.7188 19.3676 22.0008 18.506 22 17.608V12.9843L21.9975 12.9817Z" fill="black"/>
<path d="M7.1742 6.76831L10.3365 11.6123C10.4159 11.7332 10.5169 11.8308 10.6321 11.898C10.7473 11.9651 10.8736 12 11.0016 12C11.1296 12 11.2559 11.9651 11.3711 11.898C11.4863 11.8308 11.5873 11.7332 11.6667 11.6123L14.829 6.76831C14.9223 6.62333 14.9801 6.44976 14.9957 6.26732C15.0113 6.08488 14.9842 5.90084 14.9174 5.73598C14.8507 5.57113 14.7469 5.43206 14.6179 5.33454C14.4888 5.23701 14.3397 5.18488 14.1874 5.18411H12.671V0.982486C12.671 0.721932 12.585 0.47199 12.4319 0.28775C12.2789 0.103511 12.0713 6.95019e-06 11.8549 6.95019e-06H10.1473C10.04 -0.000480106 9.93368 0.0246366 9.83449 0.0738353C9.73529 0.123034 9.64517 0.195378 9.56931 0.286701C9.49345 0.378024 9.43336 0.486512 9.39249 0.605924C9.35162 0.725337 9.33079 0.853337 9.33119 0.982486V5.18411H7.81534C7.66254 5.18358 7.51271 5.23493 7.38303 5.33221C7.25335 5.4295 7.14904 5.56882 7.08212 5.73418C7.01519 5.89955 6.98835 6.08427 7.00463 6.26717C7.02092 6.45007 7.07968 6.62377 7.1742 6.76831Z" fill="black"/>
</svg>
