<svg width="17" height="17" viewBox="0 0 17 17" fill="none" xmlns="http://www.w3.org/2000/svg">
<path d="M8.59054 16.6899C4.07443 16.6899 0.400879 13.0163 0.400879 8.5002C0.400879 3.9841 4.07443 0.310547 8.59054 0.310547C13.1066 0.310547 16.7802 3.9841 16.7802 8.5002C16.7802 13.0163 13.106 16.6899 8.59054 16.6899ZM8.59054 1.62089C4.79709 1.62089 1.71122 4.70676 1.71122 8.5002C1.71122 12.2937 4.79709 15.3795 8.59054 15.3795C12.384 15.3795 15.4698 12.2937 15.4698 8.5002C15.4698 4.70676 12.3833 1.62089 8.59054 1.62089ZM8.53812 9.10296H4.33191C4.15815 9.10296 3.99151 9.03394 3.86864 8.91107C3.74577 8.7882 3.67674 8.62155 3.67674 8.44779C3.67674 8.27403 3.74577 8.10738 3.86864 7.98451C3.99151 7.86164 4.15815 7.79262 4.33191 7.79262H7.88295V2.93124C7.88295 2.75747 7.95198 2.59083 8.07484 2.46796C8.19771 2.34509 8.36436 2.27606 8.53812 2.27606C8.71189 2.27606 8.87853 2.34509 9.0014 2.46796C9.12427 2.59083 9.1933 2.75747 9.1933 2.93124V8.44779C9.1933 8.62155 9.12427 8.7882 9.0014 8.91107C8.87853 9.03394 8.71189 9.10296 8.53812 9.10296Z" fill="#042558"/>
</svg>
